<mxfile host="app.diagrams.net" modified="2022-07-13T06:27:55.835Z" agent="5.0 (Windows NT 10.0; WOW64) AppleWebKit/537.36 (KHTML, like Gecko) Chrome/103.0.0.0 Safari/537.36" etag="V2HeI7xt7-V9QWssPQ3v" version="20.0.4" type="github">
  <diagram id="C5RBs43oDa-KdzZeNtuy" name="Page-1">
    <mxGraphModel dx="1422" dy="794" grid="1" gridSize="10" guides="1" tooltips="1" connect="1" arrows="1" fold="1" page="1" pageScale="1" pageWidth="827" pageHeight="1169" math="0" shadow="0">
      <root>
        <mxCell id="WIyWlLk6GJQsqaUBKTNV-0" />
        <mxCell id="WIyWlLk6GJQsqaUBKTNV-1" parent="WIyWlLk6GJQsqaUBKTNV-0" />
        <mxCell id="1q_Pdsnq04RxZ8-s-3Dt-0" value="class Cell" style="swimlane;fontStyle=0;childLayout=stackLayout;horizontal=1;startSize=26;fillColor=none;horizontalStack=0;resizeParent=1;resizeParentMax=0;resizeLast=0;collapsible=1;marginBottom=0;" vertex="1" parent="WIyWlLk6GJQsqaUBKTNV-1">
          <mxGeometry x="160" y="170" width="140" height="78" as="geometry" />
        </mxCell>
        <mxCell id="1q_Pdsnq04RxZ8-s-3Dt-1" value="Set" style="text;strokeColor=none;fillColor=none;align=left;verticalAlign=top;spacingLeft=4;spacingRight=4;overflow=hidden;rotatable=0;points=[[0,0.5],[1,0.5]];portConstraint=eastwest;" vertex="1" parent="1q_Pdsnq04RxZ8-s-3Dt-0">
          <mxGeometry y="26" width="140" height="26" as="geometry" />
        </mxCell>
        <mxCell id="1q_Pdsnq04RxZ8-s-3Dt-2" value="Clear" style="text;strokeColor=none;fillColor=none;align=left;verticalAlign=top;spacingLeft=4;spacingRight=4;overflow=hidden;rotatable=0;points=[[0,0.5],[1,0.5]];portConstraint=eastwest;" vertex="1" parent="1q_Pdsnq04RxZ8-s-3Dt-0">
          <mxGeometry y="52" width="140" height="26" as="geometry" />
        </mxCell>
        <mxCell id="1q_Pdsnq04RxZ8-s-3Dt-17" style="edgeStyle=orthogonalEdgeStyle;rounded=0;orthogonalLoop=1;jettySize=auto;html=1;entryX=0.5;entryY=0;entryDx=0;entryDy=0;" edge="1" parent="WIyWlLk6GJQsqaUBKTNV-1" source="1q_Pdsnq04RxZ8-s-3Dt-4" target="1q_Pdsnq04RxZ8-s-3Dt-7">
          <mxGeometry relative="1" as="geometry" />
        </mxCell>
        <mxCell id="1q_Pdsnq04RxZ8-s-3Dt-4" value="class Cell" style="swimlane;fontStyle=0;childLayout=stackLayout;horizontal=1;startSize=26;fillColor=none;horizontalStack=0;resizeParent=1;resizeParentMax=0;resizeLast=0;collapsible=1;marginBottom=0;" vertex="1" parent="WIyWlLk6GJQsqaUBKTNV-1">
          <mxGeometry x="480" y="170" width="140" height="78" as="geometry" />
        </mxCell>
        <mxCell id="1q_Pdsnq04RxZ8-s-3Dt-5" value="ClearCache" style="text;strokeColor=none;fillColor=none;align=left;verticalAlign=top;spacingLeft=4;spacingRight=4;overflow=hidden;rotatable=0;points=[[0,0.5],[1,0.5]];portConstraint=eastwest;" vertex="1" parent="1q_Pdsnq04RxZ8-s-3Dt-4">
          <mxGeometry y="26" width="140" height="26" as="geometry" />
        </mxCell>
        <mxCell id="1q_Pdsnq04RxZ8-s-3Dt-6" value="ClearInherCache" style="text;strokeColor=none;fillColor=none;align=left;verticalAlign=top;spacingLeft=4;spacingRight=4;overflow=hidden;rotatable=0;points=[[0,0.5],[1,0.5]];portConstraint=eastwest;" vertex="1" parent="1q_Pdsnq04RxZ8-s-3Dt-4">
          <mxGeometry y="52" width="140" height="26" as="geometry" />
        </mxCell>
        <mxCell id="1q_Pdsnq04RxZ8-s-3Dt-7" value="class FormulaImpl" style="swimlane;fontStyle=0;childLayout=stackLayout;horizontal=1;startSize=26;fillColor=none;horizontalStack=0;resizeParent=1;resizeParentMax=0;resizeLast=0;collapsible=1;marginBottom=0;" vertex="1" parent="WIyWlLk6GJQsqaUBKTNV-1">
          <mxGeometry x="480" y="350" width="140" height="104" as="geometry" />
        </mxCell>
        <mxCell id="1q_Pdsnq04RxZ8-s-3Dt-8" value="GetValue:cache_Â " style="text;strokeColor=none;fillColor=none;align=left;verticalAlign=top;spacingLeft=4;spacingRight=4;overflow=hidden;rotatable=0;points=[[0,0.5],[1,0.5]];portConstraint=eastwest;" vertex="1" parent="1q_Pdsnq04RxZ8-s-3Dt-7">
          <mxGeometry y="26" width="140" height="26" as="geometry" />
        </mxCell>
        <mxCell id="1q_Pdsnq04RxZ8-s-3Dt-9" value="Clear: cache_" style="text;strokeColor=none;fillColor=none;align=left;verticalAlign=top;spacingLeft=4;spacingRight=4;overflow=hidden;rotatable=0;points=[[0,0.5],[1,0.5]];portConstraint=eastwest;" vertex="1" parent="1q_Pdsnq04RxZ8-s-3Dt-7">
          <mxGeometry y="52" width="140" height="26" as="geometry" />
        </mxCell>
        <mxCell id="1q_Pdsnq04RxZ8-s-3Dt-10" value="optional&lt;double&gt; cache_" style="text;strokeColor=none;fillColor=none;align=left;verticalAlign=top;spacingLeft=4;spacingRight=4;overflow=hidden;rotatable=0;points=[[0,0.5],[1,0.5]];portConstraint=eastwest;" vertex="1" parent="1q_Pdsnq04RxZ8-s-3Dt-7">
          <mxGeometry y="78" width="140" height="26" as="geometry" />
        </mxCell>
        <mxCell id="1q_Pdsnq04RxZ8-s-3Dt-11" value="Cache_invalidation" style="text;html=1;strokeColor=none;fillColor=none;align=center;verticalAlign=middle;whiteSpace=wrap;rounded=0;" vertex="1" parent="WIyWlLk6GJQsqaUBKTNV-1">
          <mxGeometry x="40" y="10" width="60" height="30" as="geometry" />
        </mxCell>
        <mxCell id="1q_Pdsnq04RxZ8-s-3Dt-12" style="edgeStyle=orthogonalEdgeStyle;rounded=0;orthogonalLoop=1;jettySize=auto;html=1;exitX=1;exitY=0.5;exitDx=0;exitDy=0;entryX=0;entryY=0.5;entryDx=0;entryDy=0;" edge="1" parent="WIyWlLk6GJQsqaUBKTNV-1" source="1q_Pdsnq04RxZ8-s-3Dt-1" target="1q_Pdsnq04RxZ8-s-3Dt-5">
          <mxGeometry relative="1" as="geometry" />
        </mxCell>
        <mxCell id="1q_Pdsnq04RxZ8-s-3Dt-14" style="edgeStyle=orthogonalEdgeStyle;rounded=0;orthogonalLoop=1;jettySize=auto;html=1;entryX=0;entryY=0.5;entryDx=0;entryDy=0;" edge="1" parent="WIyWlLk6GJQsqaUBKTNV-1" source="1q_Pdsnq04RxZ8-s-3Dt-2" target="1q_Pdsnq04RxZ8-s-3Dt-6">
          <mxGeometry relative="1" as="geometry" />
        </mxCell>
        <mxCell id="1q_Pdsnq04RxZ8-s-3Dt-15" value="" style="endArrow=classic;html=1;rounded=0;entryX=0;entryY=0.5;entryDx=0;entryDy=0;" edge="1" parent="WIyWlLk6GJQsqaUBKTNV-1" target="1q_Pdsnq04RxZ8-s-3Dt-5">
          <mxGeometry width="50" height="50" relative="1" as="geometry">
            <mxPoint x="300" y="234" as="sourcePoint" />
            <mxPoint x="350" y="184" as="targetPoint" />
          </mxGeometry>
        </mxCell>
        <mxCell id="1q_Pdsnq04RxZ8-s-3Dt-16" value="" style="endArrow=classic;html=1;rounded=0;exitX=1;exitY=0.5;exitDx=0;exitDy=0;entryX=0;entryY=0.5;entryDx=0;entryDy=0;" edge="1" parent="WIyWlLk6GJQsqaUBKTNV-1" source="1q_Pdsnq04RxZ8-s-3Dt-1" target="1q_Pdsnq04RxZ8-s-3Dt-6">
          <mxGeometry width="50" height="50" relative="1" as="geometry">
            <mxPoint x="390" y="230" as="sourcePoint" />
            <mxPoint x="440" y="180" as="targetPoint" />
          </mxGeometry>
        </mxCell>
      </root>
    </mxGraphModel>
  </diagram>
</mxfile>
